<svg version="1.1" viewBox="0 0 24 24" xmlns="http://www.w3.org/2000/svg" xmlns:xlink="http://www.w3.org/1999/xlink"><defs><linearGradient id="linearGradient5278" x1="97.188" x2="140.38" y1="305.67" y2="335.65" gradientTransform="translate(-86.873 699.82)" gradientUnits="userSpaceOnUse"><stop stop-color="#fafafa" offset="0"/><stop stop-color="#bababa" offset="1"/></linearGradient><linearGradient id="linearGradient5280" x1="50.828" x2="78.197" y1="298.32" y2="339.65" gradientTransform="translate(-32.973 701.22)" gradientUnits="userSpaceOnUse"><stop stop-color="#6b3c74" offset="0"/><stop stop-color="#461b4d" offset="1"/></linearGradient><linearGradient id="linearGradient5282" x1="53.621" x2="77.825" y1="305.77" y2="331.74" gradientTransform="translate(-31.484 700.1)" gradientUnits="userSpaceOnUse"><stop stop-color="#320f38" offset="0"/><stop stop-color="#5a2963" offset="1"/></linearGradient><linearGradient id="linearGradient5284" x1="110.31" x2="126.88" y1="312.28" y2="329.41" gradientTransform="translate(-87.152 700.01)" gradientUnits="userSpaceOnUse"><stop stop-color="#e6e2e8" offset="0"/><stop stop-color="#aaa3ad" offset="1"/></linearGradient><linearGradient id="linearGradient5286" x1="115.97" x2="119.38" y1="317.42" y2="322.43" gradientTransform="translate(-87.152 700.01)" gradientUnits="userSpaceOnUse"><stop stop-color="#65376e" offset="0"/><stop stop-color="#4c2354" offset="1"/></linearGradient></defs><g transform="matrix(.42935 0 0 .42935 -1.7392 -426.09)"><g><circle cx="32" cy="1020.4" r="27.949" fill="url(#linearGradient5278)"/><circle cx="32.727" cy="1019.5" r="25.951" fill="url(#linearGradient5280)"/><circle cx="34.224" cy="1017.8" r="20" fill="url(#linearGradient5282)"/></g><path d="m44.481 1020.5a12.849 12.849 0 0 1-12.849 12.849 12.849 12.849 0 0 1-12.849-12.849 12.849 12.849 0 0 1 12.849-12.849 12.849 12.849 0 0 1 12.849 12.849z" fill="url(#linearGradient5284)" fill-rule="evenodd"/><path d="m28.374 1014.7v11.45l9.2161-5.8647z" fill="url(#linearGradient5286)" fill-rule="evenodd"/></g></svg>
